<?xml version="1.0" standalone="no"?><svg xmlns="http://www.w3.org/2000/svg" viewBox="0 0 1440 320"><path fill="#1D1E28" fill-opacity="1" d="M0,160L18.5,176C36.9,192,74,224,111,218.7C147.7,213,185,171,222,133.3C258.5,96,295,64,332,90.7C369.2,117,406,203,443,208C480,213,517,139,554,128C590.8,117,628,171,665,208C701.5,245,738,267,775,256C812.3,245,849,203,886,202.7C923.1,203,960,245,997,272C1033.8,299,1071,309,1108,261.3C1144.6,213,1182,107,1218,80C1255.4,53,1292,107,1329,128C1366.2,149,1403,139,1422,133.3L1440,128L1440,0L1421.5,0C1403.1,0,1366,0,1329,0C1292.3,0,1255,0,1218,0C1181.5,0,1145,0,1108,0C1070.8,0,1034,0,997,0C960,0,923,0,886,0C849.2,0,812,0,775,0C738.5,0,702,0,665,0C627.7,0,591,0,554,0C516.9,0,480,0,443,0C406.2,0,369,0,332,0C295.4,0,258,0,222,0C184.6,0,148,0,111,0C73.8,0,37,0,18,0L0,0Z" style="--darkreader-inline-fill:#1e0075;" data-darkreader-inline-fill=""></path></svg>